<?xml version="1.0" encoding="utf-8"?>
<!-- Generator: Adobe Illustrator 28.0.0, SVG Export Plug-In . SVG Version: 6.00 Build 0)  -->
<svg version="1.1" id="Capa_1" xmlns="http://www.w3.org/2000/svg" xmlns:xlink="http://www.w3.org/1999/xlink" x="0px" y="0px"
	 viewBox="0 0 236 230" style="enable-background:new 0 0 236 230;" xml:space="preserve">
<style type="text/css">
	.st0{fill-rule:evenodd;clip-rule:evenodd;fill:#D70909;}
</style>
<path class="st0" d="M60.7,199.5c8.4,0,15.2,6.8,15.2,15.2c0,8.4-6.8,15.2-15.2,15.2c-8.4,0-15.2-6.8-15.2-15.2
	C45.4,206.4,52.3,199.5,60.7,199.5z M193.4,199.5c8.4,0,15.3,6.8,15.3,15.2c0,8.4-6.8,15.2-15.3,15.2c-8.4,0-15.2-6.8-15.2-15.2
	C178.2,206.4,185,199.5,193.4,199.5z M10.3,0.1l24.5,4.2c3.9,0.7,6.9,4,7.3,8l2.8,33l10.3,0c1.7,0,3.3,0,5,0l18.9,0c1.5,0,3,0,4.5,0
	l20.8,0c1.3,0,2.6,0,3.9,0l14.6,0c1.2,0,2.3,0,3.4,0l12.9,0c1,0,2,0,3,0l11.2,0c0.9,0,1.8,0,2.6,0l7.4,0c0.8,0,1.6,0,2.3,0l8.5,0
	c0.7,0,1.3,0,2,0l7.2,0c0.6,0,1.1,0,1.6,0l4.6,0c0.5,0,0.9,0,1.4,0l5.1,0c0.4,0,0.8,0,1.1,0l3.1,0c0.3,0,0.6,0,1,0l3.4,0
	c0.3,0,0.5,0,0.7,0l2,0c0.2,0,0.4,0,0.6,0l2,0c0.1,0,0.3,0,0.4,0l1.1,0c0.1,0,0.2,0,0.3,0l0.8,0c0.1,0,0.1,0,0.2,0l0.5,0
	c0.1,0,0.1,0,0.1,0l0.3,0c0,0,0.1,0,0.1,0l0.2,0c0,0,0,0,0,0c0.1,0,0.1,0,0.1,0c6.6,1,12.3,4.4,16.3,9.7c3.9,5.3,5.6,11.7,4.6,18.2
	L224,150.6c-2.1,14.7-14.9,25.8-29.7,25.8H65.7c-15.5,0-28.6-12.1-29.9-27.6L25.1,20.6L7.3,17.5c-4.8-0.8-8-5.4-7.2-10.2
	C1,2.5,5.6-0.6,10.3,0.1z M52.8,62.9l-6.4,0l7.1,84.4c0.5,6.5,5.8,11.4,12.3,11.4h128.5c6.1,0,11.4-4.6,12.2-10.6l11.2-77.2
	c0.3-1.8-0.2-3.7-1.3-5.2c-1.1-1.5-2.7-2.5-4.6-2.7c-0.1,0-0.3,0-0.6,0l-1.3,0c-0.3,0-0.6,0-0.9,0l-6.7,0c-0.6,0-1.1,0-1.8,0
	l-15.7,0c-0.9,0-1.8,0-2.7,0l-17.9,0c-1.1,0-2.2,0-3.2,0L151,63c-1.2,0-2.3,0-3.5,0l-10.7,0c-1.2,0-2.4,0-3.6,0l-7.4,0
	c-1.2,0-2.5,0-3.7,0l-11.3,0c-1.3,0-2.5,0-3.8,0l-7.5,0c-1.3,0-2.5,0-3.8,0l-7.5,0c-1.2,0-2.5,0-3.7,0l-11,0c-1.2,0-2.4,0-3.6,0
	l-13.8,0C55,62.9,53.9,62.9,52.8,62.9z M175.4,88.8c4.9,0,8.8,4,8.8,8.8c0,4.9-4,8.8-8.8,8.8h-32.6c-4.9,0-8.8-4-8.8-8.8
	c0-4.9,3.9-8.8,8.8-8.8H175.4z"/>
</svg>
