<?xml version="1.0" encoding="utf-8"?>
<!-- Generator: Adobe Illustrator 28.0.0, SVG Export Plug-In . SVG Version: 6.00 Build 0)  -->
<svg version="1.1" id="Capa_1" xmlns="http://www.w3.org/2000/svg" xmlns:xlink="http://www.w3.org/1999/xlink" x="0px" y="0px"
	 viewBox="0 0 233 230" style="enable-background:new 0 0 233 230;" xml:space="preserve">
<style type="text/css">
	.st0{fill-rule:evenodd;clip-rule:evenodd;fill:#D70909;}
</style>
<path class="st0" d="M224.6,148.4c4.8,0.4,8.4,4.6,8.1,9.4l-2.2,29.2c-1.8,24.1-22.2,43-46.4,43H48.9c-24.2,0-44.5-18.9-46.4-43
	l-2.2-29.2c-0.4-4.8,3.3-9,8.1-9.4c4.8-0.2,9,3.2,9.4,8.1l2.2,29.2c1.1,15.1,13.8,26.9,28.9,26.9H184c15.1,0,27.8-11.8,28.9-26.9
	l2.2-29.2C215.5,151.6,219.8,148.2,224.6,148.4z M131.5,0c17.5,0,32,13.1,34.2,30l22.9,0c24.4,0,44.3,19.9,44.3,44.4v40.1
	c0,3.1-1.7,6-4.3,7.5c-28.8,16.8-65.2,26.7-103.4,28l0,21c0,4.8-3.9,8.7-8.7,8.7c-4.8,0-8.7-3.9-8.7-8.7l0-21
	c-38.2-1.3-74.6-11.1-103.4-28c-2.7-1.6-4.3-4.4-4.3-7.5V74.3c0-24.4,19.9-44.3,44.4-44.3l22.8,0c2.2-16.9,16.7-30,34.2-30H131.5z
	 M188.6,47.5H44.4c-14.8,0-26.9,12-26.9,26.8v35.1c27.7,15,62.5,23.3,98.8,23.3l0.2,0l0.1,0l5.5-0.1c34.3-0.8,67.1-9,93.3-23.2v-35
	C215.4,59.6,203.4,47.5,188.6,47.5z M131.5,17.5h-30.1c-7.8,0-14.5,5.3-16.4,12.6h62.9C146,22.8,139.3,17.5,131.5,17.5z"/>
</svg>
